<mxfile host="app.diagrams.net" modified="2021-12-15T11:55:59.485Z" agent="5.0 (Macintosh; Intel Mac OS X 10_15_7) AppleWebKit/537.36 (KHTML, like Gecko) Chrome/96.0.4664.93 Safari/537.36" etag="MwPD1NBGSOSNbUOLna3_" version="15.9.4" type="github" pages="2">
  <diagram id="l6IhhjNau9bpA8WfISwI" name="Page-1">
    <mxGraphModel dx="1513" dy="758" grid="1" gridSize="10" guides="1" tooltips="1" connect="1" arrows="1" fold="1" page="1" pageScale="1" pageWidth="850" pageHeight="1100" math="0" shadow="0">
      <root>
        <mxCell id="0" />
        <mxCell id="1" parent="0" />
        <mxCell id="6HmeeZvAXtWgI4YsaA5u-4" value="florence.rsliotta.com" style="points=[[0,0],[0.25,0],[0.5,0],[0.75,0],[1,0],[1,0.25],[1,0.5],[1,0.75],[1,1],[0.75,1],[0.5,1],[0.25,1],[0,1],[0,0.75],[0,0.5],[0,0.25]];outlineConnect=0;gradientColor=none;html=1;whiteSpace=wrap;fontSize=12;fontStyle=0;shape=mxgraph.aws4.group;grIcon=mxgraph.aws4.group_on_premise;strokeColor=#5A6C86;fillColor=none;verticalAlign=top;align=left;spacingLeft=30;fontColor=#5A6C86;dashed=0;" parent="1" vertex="1">
          <mxGeometry x="83" y="580" width="440" height="70" as="geometry" />
        </mxCell>
        <mxCell id="6HmeeZvAXtWgI4YsaA5u-5" value="miami.rsliotta.com" style="points=[[0,0],[0.25,0],[0.5,0],[0.75,0],[1,0],[1,0.25],[1,0.5],[1,0.75],[1,1],[0.75,1],[0.5,1],[0.25,1],[0,1],[0,0.75],[0,0.5],[0,0.25]];outlineConnect=0;gradientColor=none;html=1;whiteSpace=wrap;fontSize=12;fontStyle=0;shape=mxgraph.aws4.group;grIcon=mxgraph.aws4.group_on_premise;strokeColor=#5A6C86;fillColor=none;verticalAlign=top;align=left;spacingLeft=30;fontColor=#5A6C86;dashed=0;" parent="1" vertex="1">
          <mxGeometry x="83" y="510" width="440" height="70" as="geometry" />
        </mxCell>
        <mxCell id="6HmeeZvAXtWgI4YsaA5u-6" value="sydney.rsliotta.com" style="points=[[0,0],[0.25,0],[0.5,0],[0.75,0],[1,0],[1,0.25],[1,0.5],[1,0.75],[1,1],[0.75,1],[0.5,1],[0.25,1],[0,1],[0,0.75],[0,0.5],[0,0.25]];outlineConnect=0;gradientColor=none;html=1;whiteSpace=wrap;fontSize=12;fontStyle=0;shape=mxgraph.aws4.group;grIcon=mxgraph.aws4.group_on_premise;strokeColor=#5A6C86;fillColor=none;verticalAlign=top;align=left;spacingLeft=30;fontColor=#5A6C86;dashed=0;" parent="1" vertex="1">
          <mxGeometry x="83" y="234" width="440" height="70" as="geometry" />
        </mxCell>
        <mxCell id="6HmeeZvAXtWgI4YsaA5u-7" value="moscow.rsliotta.com" style="points=[[0,0],[0.25,0],[0.5,0],[0.75,0],[1,0],[1,0.25],[1,0.5],[1,0.75],[1,1],[0.75,1],[0.5,1],[0.25,1],[0,1],[0,0.75],[0,0.5],[0,0.25]];outlineConnect=0;gradientColor=none;html=1;whiteSpace=wrap;fontSize=12;fontStyle=0;shape=mxgraph.aws4.group;grIcon=mxgraph.aws4.group_on_premise;strokeColor=#5A6C86;fillColor=none;verticalAlign=top;align=left;spacingLeft=30;fontColor=#5A6C86;dashed=0;" parent="1" vertex="1">
          <mxGeometry x="83" y="164" width="440" height="70" as="geometry" />
        </mxCell>
        <mxCell id="6HmeeZvAXtWgI4YsaA5u-8" value="tony.rsliotta.com" style="points=[[0,0],[0.25,0],[0.5,0],[0.75,0],[1,0],[1,0.25],[1,0.5],[1,0.75],[1,1],[0.75,1],[0.5,1],[0.25,1],[0,1],[0,0.75],[0,0.5],[0,0.25]];outlineConnect=0;gradientColor=none;html=1;whiteSpace=wrap;fontSize=12;fontStyle=0;shape=mxgraph.aws4.group;grIcon=mxgraph.aws4.group_on_premise;strokeColor=#5A6C86;fillColor=none;verticalAlign=top;align=left;spacingLeft=30;fontColor=#5A6C86;dashed=0;" parent="1" vertex="1">
          <mxGeometry x="83" y="440" width="440" height="70" as="geometry" />
        </mxCell>
        <mxCell id="6HmeeZvAXtWgI4YsaA5u-10" value="" style="strokeColor=#666666;html=1;labelPosition=right;align=left;spacingLeft=15;shadow=0;dashed=0;outlineConnect=0;shape=mxgraph.rack.general.hub;" parent="1" vertex="1">
          <mxGeometry x="83" y="304" width="440" height="30" as="geometry" />
        </mxCell>
        <mxCell id="6HmeeZvAXtWgI4YsaA5u-11" value="" style="strokeColor=#666666;html=1;labelPosition=right;align=left;spacingLeft=15;shadow=0;dashed=0;outlineConnect=0;shape=mxgraph.rack.general.hub;" parent="1" vertex="1">
          <mxGeometry x="83" y="650" width="440" height="30" as="geometry" />
        </mxCell>
        <mxCell id="6HmeeZvAXtWgI4YsaA5u-15" value="vol2" style="rounded=0;whiteSpace=wrap;html=1;" parent="1" vertex="1">
          <mxGeometry x="83" y="130" width="120" height="34" as="geometry" />
        </mxCell>
        <mxCell id="6HmeeZvAXtWgI4YsaA5u-14" value="" style="shape=image;html=1;verticalAlign=top;verticalLabelPosition=bottom;labelBackgroundColor=#ffffff;imageAspect=0;aspect=fixed;image=https://cdn0.iconfinder.com/data/icons/just-drivers/128/1403708877_External_Drive-Black.png" parent="1" vertex="1">
          <mxGeometry x="85" y="134" width="26" height="26" as="geometry" />
        </mxCell>
        <mxCell id="6HmeeZvAXtWgI4YsaA5u-18" value="vol1" style="rounded=0;whiteSpace=wrap;html=1;" parent="1" vertex="1">
          <mxGeometry x="83" y="96" width="120" height="34" as="geometry" />
        </mxCell>
        <mxCell id="6HmeeZvAXtWgI4YsaA5u-19" value="" style="shape=image;html=1;verticalAlign=top;verticalLabelPosition=bottom;labelBackgroundColor=#ffffff;imageAspect=0;aspect=fixed;image=https://cdn0.iconfinder.com/data/icons/just-drivers/128/1403708877_External_Drive-Black.png" parent="1" vertex="1">
          <mxGeometry x="85" y="100" width="26" height="26" as="geometry" />
        </mxCell>
        <mxCell id="6HmeeZvAXtWgI4YsaA5u-20" value="minio" style="rounded=0;whiteSpace=wrap;html=1;" parent="1" vertex="1">
          <mxGeometry x="236" y="130" width="120" height="34" as="geometry" />
        </mxCell>
        <mxCell id="6HmeeZvAXtWgI4YsaA5u-21" value="" style="shape=image;html=1;verticalAlign=top;verticalLabelPosition=bottom;labelBackgroundColor=#ffffff;imageAspect=0;aspect=fixed;image=https://cdn0.iconfinder.com/data/icons/just-drivers/128/1403708877_External_Drive-Black.png" parent="1" vertex="1">
          <mxGeometry x="238" y="134" width="26" height="26" as="geometry" />
        </mxCell>
        <mxCell id="1XUaaRZ4qlkDjmfdjBE--3" value="60x40" style="shape=rect;dashed=0;shadow=0;html=1;whiteSpace=wrap;rounded=0;comic=0;labelBackgroundColor=none;strokeWidth=1;fontFamily=Verdana;fontSize=12;lign=center;" parent="1" vertex="1">
          <mxGeometry x="74" y="50" width="465" height="30" as="geometry" />
        </mxCell>
        <mxCell id="1XUaaRZ4qlkDjmfdjBE--4" value="60x40" style="shape=rect;dashed=0;shadow=0;html=1;whiteSpace=wrap;rounded=0;comic=0;labelBackgroundColor=none;strokeWidth=1;fontFamily=Verdana;fontSize=12;lign=center;" parent="1" vertex="1">
          <mxGeometry x="74" y="334" width="465" height="30" as="geometry" />
        </mxCell>
        <mxCell id="1XUaaRZ4qlkDjmfdjBE--5" value="60x40" style="shape=rect;dashed=0;shadow=0;html=1;whiteSpace=wrap;rounded=0;comic=0;labelBackgroundColor=none;strokeWidth=1;fontFamily=Verdana;fontSize=12;lign=center;" parent="1" vertex="1">
          <mxGeometry x="74" y="716" width="465" height="30" as="geometry" />
        </mxCell>
        <mxCell id="1XUaaRZ4qlkDjmfdjBE--1" value="80x40" style="shape=rect;dashed=0;shadow=0;html=1;whiteSpace=wrap;rotation=270;rounded=0;comic=0;labelBackgroundColor=none;strokeWidth=1;fontFamily=Verdana;fontSize=12;align=center;" parent="1" vertex="1">
          <mxGeometry x="-286" y="378" width="695" height="40" as="geometry" />
        </mxCell>
        <mxCell id="1XUaaRZ4qlkDjmfdjBE--2" value="80x40" style="shape=rect;dashed=0;shadow=0;html=1;whiteSpace=wrap;rotation=270;rounded=0;comic=0;labelBackgroundColor=none;strokeWidth=1;fontFamily=Verdana;fontSize=12;align=center;" parent="1" vertex="1">
          <mxGeometry x="197" y="378" width="695" height="40" as="geometry" />
        </mxCell>
        <mxCell id="1XUaaRZ4qlkDjmfdjBE--6" value="Kubernetes" style="html=1;verticalLabelPosition=bottom;labelBackgroundColor=#ffffff;verticalAlign=top;shadow=0;dashed=0;strokeWidth=5;shape=mxgraph.ios7.misc.left;strokeColor=#0080f0;align=center;" parent="1" vertex="1">
          <mxGeometry x="600" y="251.5" width="20" height="38.5" as="geometry" />
        </mxCell>
      </root>
    </mxGraphModel>
  </diagram>
  <diagram id="PF_JNKIB9rU7oMh02lTL" name="Page-2">
    <mxGraphModel dx="1513" dy="676" grid="1" gridSize="10" guides="1" tooltips="1" connect="1" arrows="1" fold="1" page="1" pageScale="1" pageWidth="850" pageHeight="1100" math="0" shadow="0">
      <root>
        <mxCell id="FssN6PW_8OyNP0rycQMN-0" />
        <mxCell id="FssN6PW_8OyNP0rycQMN-1" parent="FssN6PW_8OyNP0rycQMN-0" />
      </root>
    </mxGraphModel>
  </diagram>
</mxfile>
